<svg width="92" height="25" viewBox="0 0 92 25" fill="none" xmlns="http://www.w3.org/2000/svg">
<path fill-rule="evenodd" clip-rule="evenodd" d="M3.46982 4.96281H0V1.91534H3.46982V4.96281ZM3.34593 7.62628H0.0938283V23.6326H3.37691L3.34593 7.62628Z" fill="#20263D"/>
<path d="M0.0938283 7.62628V7.23628H-0.296172V7.62628H0.0938283ZM3.34593 7.62628L3.73593 7.62552L3.73518 7.23628H3.34593V7.62628ZM3.37691 23.6326V24.0226H3.76766L3.76691 23.6318L3.37691 23.6326ZM0.0938283 23.6326H-0.296172V24.0226H0.0938283V23.6326ZM0 4.96281H-0.39V5.35281H0V4.96281ZM3.46982 4.96281V5.35281H3.85982V4.96281H3.46982ZM3.46982 1.91534H3.85982V1.52534H3.46982V1.91534ZM0 1.91534V1.52534H-0.39V1.91534H0ZM0.0938283 8.01628H3.34593V7.23628H0.0938283V8.01628ZM2.95593 7.62703L2.98691 23.6333L3.76691 23.6318L3.73593 7.62552L2.95593 7.62703ZM3.37691 23.2426H0.0938283V24.0226H3.37691V23.2426ZM0.483828 23.6326V7.62628H-0.296172V23.6326H0.483828ZM0 5.35281H3.46982V4.57281H0V5.35281ZM3.85982 4.96281V1.91534H3.07982V4.96281H3.85982ZM3.46982 1.52534H0V2.30534H3.46982V1.52534ZM-0.39 1.91534V4.96281H0.39V1.91534H-0.39Z" fill="#20263D"/>
<path d="M11.4452 7.64101C12.7771 7.33155 14.0515 7.17682 15.2703 7.17682C17.4384 7.17682 19.0381 7.64668 20.0711 8.58828C21.1032 9.52988 21.6197 10.9932 21.6197 12.983V23.6322H18.3676V13.4331C18.3676 11.1866 17.1387 10.0639 14.6819 10.0639C13.5049 10.0639 12.379 10.2667 11.3059 10.6724V23.6322H8.05286V8.84396C8.98294 8.3524 10.1134 7.95237 11.4452 7.64101" fill="#20263D"/>
<path fill-rule="evenodd" clip-rule="evenodd" d="M11.4452 7.64101C12.7771 7.33155 14.0515 7.17682 15.2703 7.17682C17.4384 7.17682 19.0381 7.64668 20.0711 8.58828C21.1032 9.52988 21.6197 10.9932 21.6197 12.983V23.6322H18.3676V13.4331C18.3676 11.1866 17.1387 10.0639 14.6819 10.0639C13.5049 10.0639 12.379 10.2667 11.3059 10.6724V23.6322H8.05286V8.84396C8.98294 8.3524 10.1134 7.95237 11.4452 7.64101Z" stroke="#20263D" stroke-width="0.78"/>
<path d="M27.5817 21.9961C26.1251 20.6931 25.3981 18.5854 25.3981 15.6775C25.3981 12.6829 26.1151 10.5176 27.5507 9.18161C28.9855 7.84563 30.8074 7.1767 33.0174 7.1767C34.6899 7.1767 36.2795 7.49748 37.7871 8.13811V11.1554C36.2166 10.4695 34.7819 10.127 33.4819 10.127C31.8504 10.127 30.6325 10.5506 29.8272 11.395C29.0219 12.2404 28.6193 13.582 28.6193 15.4209C28.6193 17.3447 29.011 18.7524 29.7962 19.6392C30.5806 20.5271 31.8404 20.9695 33.5749 20.9695C34.9786 20.9695 36.3933 20.6176 37.8172 19.9119V22.9263C36.3305 23.6123 34.7409 23.9529 33.0483 23.9529C30.8593 23.9529 29.0374 23.3009 27.5817 21.9961" fill="#20263D"/>
<path fill-rule="evenodd" clip-rule="evenodd" d="M27.5817 21.9961C26.1251 20.6931 25.3981 18.5854 25.3981 15.6775C25.3981 12.6829 26.1151 10.5176 27.5507 9.18161C28.9855 7.84563 30.8074 7.1767 33.0174 7.1767C34.6899 7.1767 36.2795 7.49748 37.7871 8.13811V11.1554C36.2166 10.4695 34.7819 10.127 33.4819 10.127C31.8504 10.127 30.6325 10.5506 29.8272 11.395C29.0219 12.2404 28.6193 13.582 28.6193 15.4209C28.6193 17.3447 29.011 18.7524 29.7962 19.6392C30.5806 20.5271 31.8404 20.9695 33.5749 20.9695C34.9786 20.9695 36.3933 20.6176 37.8172 19.9119V22.9263C36.3305 23.6123 34.7409 23.9529 33.0483 23.9529C30.8593 23.9529 29.0374 23.3009 27.5817 21.9961Z" stroke="#20263D" stroke-width="0.78"/>
<path fill-rule="evenodd" clip-rule="evenodd" d="M40.759 15.5815C40.759 18.3619 41.3839 20.4791 42.6337 21.933C43.8826 23.387 45.7464 24.1134 48.2242 24.1134C50.6191 24.1134 52.4675 23.3766 53.7683 21.9C55.0682 20.4244 55.7187 18.3195 55.7187 15.5815C55.7187 12.8435 55.0892 10.7537 53.8302 9.31106C52.5695 7.86563 50.6911 7.14575 48.1933 7.14575C43.2368 7.14575 40.759 9.95735 40.759 15.5815ZM51.4454 11.3631C52.1268 12.2944 52.4675 13.7002 52.4675 15.5815C52.4675 19.3668 51.0427 21.2594 48.1933 21.2594C46.7266 21.2594 45.6581 20.7725 44.9876 19.7998C44.3162 18.8261 43.981 17.4203 43.981 15.5815C43.981 13.7426 44.3062 12.3472 44.9566 11.3952C45.6071 10.4442 46.6847 9.96678 48.1933 9.96678C49.679 9.96678 50.764 10.4329 51.4454 11.3631Z" fill="#20263D"/>
<path d="M51.4454 11.3631L51.7601 11.1328L51.76 11.1327L51.4454 11.3631ZM44.9566 11.3952L44.6347 11.1751L44.6346 11.1752L44.9566 11.3952ZM44.9876 19.7998L45.3087 19.5785L45.3087 19.5784L44.9876 19.7998ZM42.6337 21.933L42.9296 21.6789L42.9295 21.6788L42.6337 21.933ZM53.8302 9.31106L53.5363 9.56741L53.5364 9.56749L53.8302 9.31106ZM53.7683 21.9L54.0609 22.1578L54.0609 22.1578L53.7683 21.9ZM52.8575 15.5815C52.8575 13.6652 52.5126 12.1612 51.7601 11.1328L51.1306 11.5934C51.7409 12.4275 52.0775 13.7352 52.0775 15.5815H52.8575ZM51.76 11.1327C50.9846 10.0741 49.7639 9.57678 48.1933 9.57678V10.3568C49.5942 10.3568 50.5434 10.7917 51.1307 11.5936L51.76 11.1327ZM48.1933 9.57678C46.5995 9.57678 45.3794 10.0863 44.6347 11.1751L45.2786 11.6154C45.8348 10.8021 46.77 10.3568 48.1933 10.3568V9.57678ZM44.6346 11.1752C43.9207 12.2201 43.591 13.707 43.591 15.5815H44.371C44.371 13.7783 44.6917 12.4743 45.2787 11.6152L44.6346 11.1752ZM43.591 15.5815C43.591 17.4586 43.9317 18.9554 44.6665 20.0212L45.3087 19.5784C44.7008 18.6969 44.371 17.3821 44.371 15.5815H43.591ZM44.6665 20.0211C45.4275 21.1253 46.6332 21.6494 48.1933 21.6494V20.8694C46.82 20.8694 45.8886 20.4198 45.3087 19.5785L44.6665 20.0211ZM48.1933 21.6494C49.7126 21.6494 50.9091 21.139 51.7105 20.0745C52.4961 19.0308 52.8575 17.5118 52.8575 15.5815H52.0775C52.0775 17.4364 51.7264 18.7564 51.0873 19.6054C50.4639 20.4335 49.5234 20.8694 48.1933 20.8694V21.6494ZM42.9295 21.6788C41.7628 20.3216 41.149 18.3098 41.149 15.5815H40.369C40.369 18.4141 41.005 20.6367 42.338 22.1873L42.9295 21.6788ZM41.149 15.5815C41.149 12.8182 41.7587 10.8188 42.91 9.51242C44.053 8.21545 45.7888 7.53575 48.1933 7.53575V6.75575C45.6412 6.75575 43.6599 7.48185 42.3248 8.99671C40.9981 10.5022 40.369 12.7206 40.369 15.5815H41.149ZM48.1933 7.53575C50.6151 7.53575 52.3707 8.23109 53.5363 9.56741L54.1242 9.0547C52.7682 7.50018 50.7671 6.75575 48.1933 6.75575V7.53575ZM53.5364 9.56749C54.7113 10.9138 55.3287 12.8978 55.3287 15.5815H56.1087C56.1087 12.7892 55.4671 10.5935 54.1241 9.05462L53.5364 9.56749ZM55.3287 15.5815C55.3287 18.2616 54.6921 20.2614 53.4757 21.6422L54.0609 22.1578C55.4444 20.5874 56.1087 18.3774 56.1087 15.5815H55.3287ZM53.4757 21.6422C52.2648 23.0166 50.5338 23.7234 48.2242 23.7234V24.5034C50.7045 24.5034 52.6701 23.7366 54.0609 22.1578L53.4757 21.6422ZM48.2242 23.7234C45.8244 23.7234 44.0839 23.0227 42.9296 21.6789L42.3379 22.1872C43.6814 23.7512 45.6685 24.5034 48.2242 24.5034V23.7234Z" fill="#20263D"/>
<path fill-rule="evenodd" clip-rule="evenodd" d="M73.0332 20.2324V0.793732H69.8121V8.04255C69.2336 7.74441 68.5786 7.51986 67.8453 7.36796C67.112 7.21889 66.467 7.14529 65.9095 7.14529C63.5137 7.14529 61.7082 7.87178 60.4894 9.3257C59.2714 10.7815 58.662 12.8006 58.662 15.3876C58.662 18.6181 59.3744 20.8797 60.7982 22.1732C62.2238 23.4667 64.0403 24.113 66.2502 24.113C67.3443 24.113 68.4074 23.9752 69.4404 23.6969C70.4725 23.4186 71.3297 22.9855 72.0111 22.3977C72.6925 21.8099 73.0332 21.0872 73.0332 20.2324ZM68.155 10.273C68.7645 10.4324 69.3165 10.6636 69.8121 10.9617V19.9116C69.8121 20.2975 69.4869 20.607 68.8364 20.8429C68.186 21.0787 67.3853 21.1948 66.4361 21.1948C64.7836 21.1948 63.6276 20.6881 62.9672 19.6701C62.3058 18.6549 61.9751 17.2491 61.9751 15.4527C61.9751 11.8391 63.4418 10.0314 66.3741 10.0314C66.9517 10.0314 67.5456 10.1126 68.155 10.273Z" fill="#20263D"/>
<path d="M69.8121 10.9617H70.2021V10.7412L70.0131 10.6275L69.8121 10.9617ZM68.155 10.273L68.0558 10.6501L68.0563 10.6503L68.155 10.273ZM62.9672 19.6701L63.2943 19.4578L63.2939 19.4572L62.9672 19.6701ZM73.0332 0.793732H73.4232V0.403732H73.0332V0.793732ZM69.4404 23.6969L69.5419 24.0735L69.5419 24.0735L69.4404 23.6969ZM60.7982 22.1732L60.5359 22.4618L60.5361 22.462L60.7982 22.1732ZM60.4894 9.3257L60.1905 9.07514L60.1902 9.07544L60.4894 9.3257ZM67.8453 7.36796L67.9244 6.98606L67.923 6.98577L67.8453 7.36796ZM69.8121 8.04255L69.6334 8.38921L70.2021 8.68232V8.04255H69.8121ZM69.8121 0.793732V0.403732H69.4221V0.793732H69.8121ZM70.0131 10.6275C69.4838 10.3091 68.897 10.064 68.2538 9.89566L68.0563 10.6503C68.6319 10.8009 69.1492 11.018 69.611 11.2959L70.0131 10.6275ZM68.2543 9.8958C67.6158 9.72775 66.9884 9.64142 66.3741 9.64142V10.4214C66.9149 10.4214 67.4754 10.4974 68.0558 10.6501L68.2543 9.8958ZM66.3741 9.64142C64.8237 9.64142 63.5981 10.1233 62.7721 11.1412C61.9588 12.1436 61.5851 13.6032 61.5851 15.4527H62.3651C62.3651 13.6886 62.7248 12.4376 63.3778 11.6327C64.0183 10.8434 64.9922 10.4214 66.3741 10.4214V9.64142ZM61.5851 15.4527C61.5851 17.2904 61.9224 18.7808 62.6404 19.883L63.2939 19.4572C62.6892 18.529 62.3651 17.2078 62.3651 15.4527H61.5851ZM62.64 19.8824C63.3972 21.0496 64.7048 21.5848 66.4361 21.5848V20.8048C64.8624 20.8048 63.858 20.3267 63.2943 19.4578L62.64 19.8824ZM66.4361 21.5848C67.4142 21.5848 68.2632 21.4656 68.9694 21.2095L68.7035 20.4762C68.1088 20.6919 67.3564 20.8048 66.4361 20.8048V21.5848ZM68.9694 21.2095C69.6403 20.9662 70.2021 20.5687 70.2021 19.9116H69.4221C69.4221 20.0263 69.3334 20.2478 68.7035 20.4762L68.9694 21.2095ZM70.2021 19.9116V10.9617H69.4221V19.9116H70.2021ZM72.6432 0.793732V20.2324H73.4232V0.793732H72.6432ZM72.6432 20.2324C72.6432 20.9674 72.3569 21.5844 71.7564 22.1024L72.2658 22.693C73.0281 22.0355 73.4232 21.2071 73.4232 20.2324H72.6432ZM71.7564 22.1024C71.1269 22.6454 70.325 23.0544 69.3389 23.3204L69.5419 24.0735C70.62 23.7827 71.5325 23.3256 72.2658 22.693L71.7564 22.1024ZM69.3389 23.3203C68.3401 23.5895 67.3111 23.723 66.2502 23.723V24.503C67.3774 24.503 68.4747 24.361 69.5419 24.0735L69.3389 23.3203ZM66.2502 23.723C64.1218 23.723 62.4035 23.1031 61.0602 21.8843L60.5361 22.462C62.0441 23.8302 63.9587 24.503 66.2502 24.503V23.723ZM61.0604 21.8845C59.7589 20.7021 59.052 18.5795 59.052 15.3876H58.272C58.272 18.6567 58.9898 21.0572 60.5359 22.4618L61.0604 21.8845ZM59.052 15.3876C59.052 12.859 59.6474 10.9398 60.7885 9.57595L60.1902 9.07544C58.8954 10.6231 58.272 12.7421 58.272 15.3876H59.052ZM60.7882 9.57625C61.9142 8.23311 63.5963 7.53529 65.9095 7.53529V6.75529C63.4312 6.75529 61.5022 7.51045 60.1905 9.07514L60.7882 9.57625ZM65.9095 7.53529C66.4341 7.53529 67.0522 7.60471 67.7676 7.75014L67.923 6.98577C67.1718 6.83307 66.4999 6.75529 65.9095 6.75529V7.53529ZM67.7662 7.74985C68.47 7.89564 69.0907 8.10952 69.6334 8.38921L69.9907 7.69589C69.3765 7.37929 68.6872 7.14407 67.9244 6.98606L67.7662 7.74985ZM70.2021 8.04255V0.793732H69.4221V8.04255H70.2021ZM69.8121 1.18373H73.0332V0.403732H69.8121V1.18373Z" fill="#20263D"/>
<path fill-rule="evenodd" clip-rule="evenodd" d="M90.9969 16.3519C91.0178 13.4422 90.4649 11.1807 89.3399 9.56638C88.2148 7.95207 86.4439 7.14539 84.0281 7.14539C81.7361 7.14539 79.9598 7.87659 78.7008 9.34183C77.441 10.8071 76.8115 12.9186 76.8115 15.6773C76.8115 18.371 77.4774 20.4523 78.8092 21.9166C80.1411 23.3819 81.973 24.1131 84.3068 24.1131C86.3929 24.1131 88.2403 23.7508 89.8509 23.0224V19.8806C89.1905 20.2636 88.4262 20.5807 87.559 20.826C86.6917 21.0732 85.7835 21.1949 84.8343 21.1949C83.3667 21.1949 82.2363 20.7835 81.4419 19.9598C80.6466 19.1362 80.1984 17.9351 80.0946 16.3519H90.9969ZM80.1565 13.8489C80.3424 12.4157 80.745 11.4005 81.3645 10.8014C81.9839 10.2023 82.8402 9.90414 83.9352 9.90414C85.0912 9.90414 85.9693 10.2193 86.5678 10.8495C87.1663 11.4817 87.538 12.4799 87.6838 13.8489H80.1565Z" fill="#20263D"/>
<path d="M80.1565 13.8489L79.7698 13.7987L79.7127 14.2389H80.1565V13.8489ZM87.6838 13.8489V14.2389H88.1175L88.0716 13.8076L87.6838 13.8489ZM86.5678 10.8495L86.851 10.5814L86.8506 10.581L86.5678 10.8495ZM90.9969 16.3519V16.7419H91.3841L91.3869 16.3547L90.9969 16.3519ZM80.0946 16.3519V15.9619H79.6782L79.7054 16.3775L80.0946 16.3519ZM81.4419 19.9598L81.7226 19.6891L81.7225 19.6889L81.4419 19.9598ZM87.559 20.826L87.4528 20.4507L87.452 20.4509L87.559 20.826ZM89.8509 19.8806H90.2409V19.2035L89.6552 19.5432L89.8509 19.8806ZM89.8509 23.0224L90.0116 23.3778L90.2409 23.2741V23.0224H89.8509ZM78.8092 21.9166L79.0978 21.6543L79.0978 21.6542L78.8092 21.9166ZM78.7008 9.34183L78.9966 9.59609L78.9966 9.59599L78.7008 9.34183ZM81.0933 10.5211C80.3799 11.211 79.96 12.3321 79.7698 13.7987L80.5433 13.899C80.7248 12.4994 81.1101 11.59 81.6356 11.0817L81.0933 10.5211ZM80.1565 14.2389H87.6838V13.4589H80.1565V14.2389ZM88.0716 13.8076C87.9217 12.3995 87.5337 11.3024 86.851 10.5814L86.2846 11.1177C86.799 11.6609 87.1544 12.5602 87.2959 13.8902L88.0716 13.8076ZM86.8506 10.581C86.1565 9.84996 85.1612 9.51414 83.9352 9.51414V10.2941C85.0211 10.2941 85.7822 10.5886 86.285 11.1181L86.8506 10.581ZM83.9352 9.51414C82.768 9.51414 81.804 9.83376 81.0933 10.5211L81.6356 11.0817C82.1639 10.5708 82.9124 10.2941 83.9352 10.2941V9.51414ZM89.0199 9.78936C90.0816 11.3127 90.6275 13.4836 90.6069 16.3491L91.3869 16.3547C91.4082 13.4009 90.8482 11.0486 89.6598 9.34339L89.0199 9.78936ZM90.9969 15.9619H80.0946V16.7419H90.9969V15.9619ZM79.7054 16.3775C79.813 18.0173 80.281 19.319 81.1613 20.2307L81.7225 19.6889C81.0123 18.9534 80.5839 17.853 80.4838 16.3264L79.7054 16.3775ZM81.1612 20.2306C82.0484 21.1505 83.2924 21.5849 84.8343 21.5849V20.8049C83.4411 20.8049 82.4241 20.4165 81.7226 19.6891L81.1612 20.2306ZM84.8343 21.5849C85.8172 21.5849 86.7616 21.4588 87.6659 21.201L87.452 20.4509C86.6219 20.6875 85.7498 20.8049 84.8343 20.8049V21.5849ZM87.6651 21.2012C88.559 20.9484 89.3541 20.6196 90.0466 20.2179L89.6552 19.5432C89.0268 19.9077 88.2934 20.2129 87.4528 20.4507L87.6651 21.2012ZM89.4609 19.8806V23.0224H90.2409V19.8806H89.4609ZM89.6902 22.6671C88.1386 23.3688 86.3476 23.7231 84.3068 23.7231V24.5031C86.4382 24.5031 88.3421 24.1328 90.0116 23.3778L89.6902 22.6671ZM84.3068 23.7231C82.0613 23.7231 80.3424 23.0235 79.0978 21.6543L78.5206 22.179C79.9398 23.7402 81.8847 24.5031 84.3068 24.5031V23.7231ZM79.0978 21.6542C77.8517 20.2843 77.2015 18.3095 77.2015 15.6773H76.4215C76.4215 18.4325 77.1031 20.6204 78.5207 22.179L79.0978 21.6542ZM77.2015 15.6773C77.2015 12.9725 77.8191 10.9656 78.9966 9.59609L78.4051 9.08756C77.0629 10.6486 76.4215 12.8647 76.4215 15.6773H77.2015ZM78.9966 9.59599C80.1674 8.23341 81.8262 7.53539 84.0281 7.53539V6.75539C81.6461 6.75539 79.7522 7.51977 78.405 9.08767L78.9966 9.59599ZM84.0281 7.53539C86.3494 7.53539 87.9848 8.3041 89.0199 9.78936L89.6598 9.34339C88.4449 7.60003 86.5385 6.75539 84.0281 6.75539V7.53539Z" fill="#20263D"/>
</svg>
