<svg width="460" height="64" viewBox="0 0 460 64" fill="none" xmlns="http://www.w3.org/2000/svg">
<path d="M29.8812 37.2549C31.2624 37.2549 32.3382 36.902 33.1085 36.1961C33.9054 35.4641 34.3038 34.4967 34.3038 33.2941C34.3038 32.0392 33.9054 31.0588 33.1085 30.3529C32.3382 29.6471 31.2624 29.2941 29.8812 29.2941H25.5382V37.2549H29.8812ZM25.4984 41.9216V52.3922H20V24.5882H30.5585C31.9398 24.5882 33.2015 24.8105 34.3436 25.2549C35.4858 25.6732 36.4686 26.2745 37.2921 27.0588C38.1155 27.817 38.7397 28.732 39.1647 29.8039C39.6163 30.8497 39.842 32 39.842 33.2549C39.842 34.5098 39.6163 35.6732 39.1647 36.7451C38.7397 37.817 38.1155 38.732 37.2921 39.4902C36.4686 40.2484 35.4858 40.8497 34.3436 41.2941C33.2015 41.7124 31.9398 41.9216 30.5585 41.9216H25.4984Z" fill="#20263D"/>
<path d="M51.6379 48.2353C52.2754 48.2353 52.8996 48.1176 53.5105 47.8824C54.1214 47.6471 54.6527 47.3072 55.1042 46.8627C55.5558 46.3922 55.9144 45.817 56.18 45.1373C56.4722 44.4575 56.6183 43.6601 56.6183 42.7451C56.6183 41.8301 56.4722 41.0327 56.18 40.3529C55.9144 39.6732 55.5558 39.1111 55.1042 38.6667C54.6527 38.1961 54.1214 37.8431 53.5105 37.6078C52.8996 37.3725 52.2754 37.2549 51.6379 37.2549C51.0004 37.2549 50.3762 37.3725 49.7652 37.6078C49.1543 37.8431 48.6231 38.1961 48.1715 38.6667C47.7199 39.1111 47.3481 39.6732 47.0559 40.3529C46.7903 41.0327 46.6574 41.8301 46.6574 42.7451C46.6574 43.6601 46.7903 44.4575 47.0559 45.1373C47.3481 45.817 47.7199 46.3922 48.1715 46.8627C48.6231 47.3072 49.1543 47.6471 49.7652 47.8824C50.3762 48.1176 51.0004 48.2353 51.6379 48.2353ZM51.6379 32.5098C53.0988 32.5098 54.4535 32.7712 55.7019 33.2941C56.9769 33.7908 58.0659 34.4967 58.9691 35.4118C59.8987 36.3007 60.6159 37.3725 61.1206 38.6274C61.6519 39.8824 61.9175 41.2549 61.9175 42.7451C61.9175 44.2353 61.6519 45.6078 61.1206 46.8627C60.6159 48.0915 59.8987 49.1634 58.9691 50.0784C58.0659 50.9935 56.9769 51.7124 55.7019 52.2353C54.4535 52.732 53.0988 52.9804 51.6379 52.9804C50.1769 52.9804 48.809 52.732 47.534 52.2353C46.2856 51.7124 45.1965 50.9935 44.2668 50.0784C43.3637 49.1634 42.6465 48.0915 42.1153 46.8627C41.6106 45.6078 41.3583 44.2353 41.3583 42.7451C41.3583 41.2549 41.6106 39.8824 42.1153 38.6274C42.6465 37.3725 43.3637 36.3007 44.2668 35.4118C45.1965 34.4967 46.2856 33.7908 47.534 33.2941C48.809 32.7712 50.1769 32.5098 51.6379 32.5098Z" fill="#20263D"/>
<path d="M82.7939 33.098L87.0173 45.5294L90.6431 33.098H95.9024L89.7665 52.3922H84.4673L79.8853 39.2157L75.383 52.3922H70.0041L63.7487 33.098H69.3268L72.9526 45.4902L77.2158 33.098H82.7939Z" fill="#20263D"/>
<path d="M111.883 40.549C111.856 40.0784 111.75 39.6209 111.564 39.1765C111.405 38.7059 111.139 38.3007 110.767 37.9608C110.422 37.5948 109.97 37.3072 109.412 37.098C108.881 36.8627 108.244 36.7451 107.5 36.7451C106.809 36.7451 106.198 36.8627 105.667 37.098C105.136 37.3333 104.684 37.634 104.312 38C103.941 38.366 103.648 38.7712 103.436 39.2157C103.25 39.6601 103.144 40.1046 103.117 40.549H111.883ZM116.823 46.8627C116.584 47.6993 116.199 48.4967 115.668 49.2549C115.163 49.9869 114.539 50.6274 113.795 51.1765C113.051 51.7255 112.175 52.1569 111.166 52.4706C110.183 52.8105 109.094 52.9804 107.898 52.9804C106.544 52.9804 105.255 52.7582 104.034 52.3137C102.812 51.8431 101.736 51.1634 100.806 50.2745C99.8765 49.3856 99.1328 48.3007 98.575 47.0196C98.0438 45.7386 97.7781 44.2876 97.7781 42.6667C97.7781 41.1242 98.0438 39.7255 98.575 38.4706C99.1062 37.2157 99.8102 36.1569 100.687 35.2941C101.59 34.4052 102.626 33.7255 103.794 33.2549C104.963 32.7582 106.172 32.5098 107.42 32.5098C110.475 32.5098 112.852 33.3987 114.552 35.1765C116.252 36.9542 117.102 39.3987 117.102 42.5098C117.102 42.8758 117.089 43.2288 117.062 43.5686C117.036 43.8824 117.023 44.0654 117.023 44.1176H102.998C103.024 44.7451 103.17 45.3333 103.436 45.8824C103.728 46.4052 104.087 46.8627 104.512 47.2549C104.963 47.6471 105.481 47.9608 106.066 48.1961C106.65 48.4052 107.274 48.5098 107.938 48.5098C109.187 48.5098 110.156 48.2353 110.847 47.6863C111.564 47.1373 112.082 46.4314 112.401 45.5686L116.823 46.8627Z" fill="#20263D"/>
<path d="M133.337 38.2745C132.806 38.1699 132.275 38.1176 131.744 38.1176C131.053 38.1176 130.402 38.2091 129.791 38.3922C129.18 38.5752 128.649 38.8758 128.198 39.2941C127.746 39.7124 127.374 40.2745 127.082 40.9804C126.816 41.6601 126.684 42.5229 126.684 43.5686V52.3922H121.384V33.098H126.524V35.9608C126.816 35.3333 127.188 34.8235 127.64 34.4314C128.118 34.0131 128.609 33.6993 129.114 33.4902C129.645 33.281 130.163 33.1373 130.668 33.0588C131.199 32.9804 131.677 32.9412 132.102 32.9412C132.315 32.9412 132.514 32.9542 132.7 32.9804C132.912 32.9804 133.125 32.9935 133.337 33.0196V38.2745Z" fill="#20263D"/>
<path d="M149.547 40.549C149.521 40.0784 149.414 39.6209 149.228 39.1765C149.069 38.7059 148.803 38.3007 148.432 37.9608C148.086 37.5948 147.635 37.3072 147.077 37.098C146.546 36.8627 145.908 36.7451 145.164 36.7451C144.474 36.7451 143.863 36.8627 143.332 37.098C142.8 37.3333 142.349 37.634 141.977 38C141.605 38.366 141.313 38.7712 141.1 39.2157C140.914 39.6601 140.808 40.1046 140.782 40.549H149.547ZM154.488 46.8627C154.249 47.6993 153.864 48.4967 153.332 49.2549C152.828 49.9869 152.203 50.6274 151.46 51.1765C150.716 51.7255 149.839 52.1569 148.83 52.4706C147.847 52.8105 146.758 52.9804 145.563 52.9804C144.208 52.9804 142.92 52.7582 141.698 52.3137C140.476 51.8431 139.4 51.1634 138.471 50.2745C137.541 49.3856 136.797 48.3007 136.24 47.0196C135.708 45.7386 135.443 44.2876 135.443 42.6667C135.443 41.1242 135.708 39.7255 136.24 38.4706C136.771 37.2157 137.475 36.1569 138.351 35.2941C139.254 34.4052 140.29 33.7255 141.459 33.2549C142.628 32.7582 143.836 32.5098 145.085 32.5098C148.139 32.5098 150.517 33.3987 152.217 35.1765C153.917 36.9542 154.767 39.3987 154.767 42.5098C154.767 42.8758 154.753 43.2288 154.727 43.5686C154.7 43.8824 154.687 44.0654 154.687 44.1176H140.662C140.689 44.7451 140.835 45.3333 141.1 45.8824C141.393 46.4052 141.751 46.8627 142.176 47.2549C142.628 47.6471 143.146 47.9608 143.73 48.1961C144.314 48.4052 144.939 48.5098 145.603 48.5098C146.851 48.5098 147.821 48.2353 148.511 47.6863C149.228 47.1373 149.746 46.4314 150.065 45.5686L154.488 46.8627Z" fill="#20263D"/>
<path d="M178.014 48.902C178.014 49.5556 178.028 50.2091 178.054 50.8627C178.081 51.4902 178.121 52 178.174 52.3922H173.114C173.061 52.183 173.007 51.8693 172.954 51.451C172.928 51.0327 172.914 50.6013 172.914 50.1569C172.463 50.915 171.759 51.5556 170.803 52.0784C169.873 52.6013 168.744 52.8627 167.416 52.8627C166.008 52.8627 164.72 52.6144 163.551 52.1176C162.383 51.5948 161.373 50.8889 160.523 50C159.7 49.085 159.049 48.0131 158.571 46.7843C158.093 45.5294 157.854 44.1699 157.854 42.7059C157.854 41.2941 158.079 39.9739 158.531 38.7451C159.009 37.5163 159.66 36.4575 160.483 35.5686C161.307 34.6536 162.29 33.9346 163.432 33.4118C164.6 32.8889 165.875 32.6275 167.257 32.6275C168.107 32.6275 168.837 32.7059 169.448 32.8627C170.086 33.0196 170.63 33.2157 171.082 33.451C171.533 33.6863 171.892 33.9477 172.157 34.2353C172.45 34.4967 172.662 34.7582 172.795 35.0196V24H178.014V48.902ZM163.193 42.7059C163.193 44.4314 163.644 45.7778 164.547 46.7451C165.477 47.7124 166.646 48.1961 168.054 48.1961C169.408 48.1961 170.55 47.7124 171.48 46.7451C172.41 45.7778 172.875 44.4183 172.875 42.6667C172.875 40.9412 172.41 39.6209 171.48 38.7059C170.55 37.7647 169.408 37.2941 168.054 37.2941C166.699 37.2941 165.543 37.7647 164.587 38.7059C163.657 39.6471 163.193 40.9804 163.193 42.7059Z" fill="#20263D"/>
<path d="M192.9 52.3922V24H198.12V35.2157C198.571 34.5359 199.302 33.9346 200.311 33.4118C201.347 32.8627 202.596 32.5882 204.056 32.5882C205.491 32.5882 206.766 32.8497 207.881 33.3725C208.997 33.8693 209.94 34.5752 210.71 35.4902C211.507 36.3791 212.105 37.4379 212.503 38.6667C212.902 39.8954 213.101 41.2288 213.101 42.6667C213.101 44.1307 212.875 45.4902 212.424 46.7451C211.999 47.9739 211.374 49.0458 210.551 49.9608C209.754 50.8758 208.785 51.5948 207.642 52.1176C206.5 52.6144 205.238 52.8627 203.857 52.8627C202.503 52.8627 201.321 52.6013 200.311 52.0784C199.328 51.5556 198.571 50.8758 198.04 50.0392V52.3922H192.9ZM207.802 42.7059C207.802 40.9281 207.324 39.5817 206.367 38.6667C205.438 37.7255 204.296 37.2549 202.941 37.2549C202.277 37.2549 201.639 37.3725 201.028 37.6078C200.444 37.8431 199.926 38.1961 199.474 38.6667C199.049 39.1111 198.704 39.6732 198.439 40.3529C198.173 41.0327 198.04 41.817 198.04 42.7059C198.04 43.5686 198.173 44.3399 198.439 45.0196C198.704 45.6993 199.049 46.2745 199.474 46.7451C199.926 47.2157 200.444 47.5817 201.028 47.8431C201.639 48.0784 202.277 48.1961 202.941 48.1961C204.296 48.1961 205.438 47.7255 206.367 46.7843C207.324 45.8431 207.802 44.4837 207.802 42.7059Z" fill="#20263D"/>
<path d="M218.07 60L222.692 49.9608L214.365 33.098H220.302L225.521 44.3922L230.342 33.098H236L223.688 60H218.07Z" fill="#20263D"/>
<path fill-rule="evenodd" clip-rule="evenodd" d="M390.405 8H389.858V8.53667V21.6648C388.84 21.2419 387.725 20.9132 386.516 20.6757L386.514 20.6753C384.999 20.3834 383.652 20.2363 382.475 20.2363C377.497 20.2363 373.657 21.6714 371.049 24.6217L371.048 24.6221C368.462 27.5533 367.201 31.5832 367.201 36.6518C367.201 42.933 368.659 47.4838 371.728 50.1277L371.729 50.1279C374.741 52.7196 378.567 53.9979 383.167 53.9979C385.435 53.9979 387.642 53.7271 389.787 53.1791C391.947 52.6269 393.765 51.7614 395.223 50.5692C396.722 49.3433 397.497 47.8042 397.497 45.9853V8.53667V8H396.95H390.405ZM375.027 36.7767C375.027 33.3581 375.761 30.8937 377.134 29.2893C378.491 27.7028 380.551 26.8692 383.419 26.8692C384.543 26.8692 385.705 27.0189 386.903 27.318L386.904 27.3182C387.985 27.5863 388.969 27.9625 389.858 28.4385V45.3668C389.858 45.5604 389.78 45.7595 389.539 45.9774C389.286 46.2066 388.868 46.4391 388.242 46.6543C386.996 47.0825 385.435 47.3021 383.545 47.3021C380.29 47.3021 378.153 46.3605 376.95 44.6022L376.949 44.6013C375.689 42.7667 375.027 40.1778 375.027 36.7767ZM419.292 20.2384C414.515 20.2384 410.742 21.6884 408.059 24.6496L408.058 24.6497C405.379 27.6044 404.081 31.8189 404.081 37.2119C404.081 42.4905 405.459 46.6494 408.289 49.5999C411.119 52.5518 414.998 54 419.858 54C424.158 54 427.989 53.2919 431.342 51.854L431.67 51.7134V51.3622V45.3094V44.3938L430.857 44.8412C429.559 45.5547 428.048 46.1501 426.322 46.613L426.321 46.6133C424.61 47.0759 422.813 47.3047 420.93 47.3047C418.047 47.3047 415.906 46.5407 414.423 45.0829L414.423 45.0826C413.028 43.7124 412.167 41.7246 411.893 39.0482H433.452H433.995L433.999 38.5155C434.042 32.846 432.907 28.3613 430.528 25.125C428.113 21.8394 424.326 20.2384 419.292 20.2384ZM414.252 28.2107C415.382 27.1742 416.974 26.6265 419.103 26.6265C421.359 26.6265 422.981 27.208 424.062 28.2872C425.07 29.2967 425.769 30.891 426.1 33.1527H412.059C412.461 30.7764 413.215 29.1617 414.252 28.2107ZM248.547 10.1621H248V10.6987V16.5697V17.1064H248.547H255.597H256.144V16.5697V10.6987V10.1621H255.597H248.547ZM248.737 21.1643H248.191V21.7009V52.5371V53.0737H248.737H255.409H255.956L255.955 52.536L255.892 21.6999L255.891 21.1643H255.346H248.737ZM279.576 20.2975C277.054 20.2975 274.424 20.601 271.683 21.2048L271.683 21.2049C268.945 21.8117 266.602 22.5953 264.661 23.5679L264.363 23.7172V24.0459V52.5355V53.0721H264.91H271.52H272.066V52.5355V27.9478C274.077 27.2715 276.182 26.9328 278.38 26.9328C280.807 26.9328 282.526 27.4601 283.635 28.4209C284.731 29.3705 285.323 30.8243 285.323 32.8869V52.5355V53.0721H285.869H292.478H293.024V52.5355V32.0198C293.024 28.0954 291.948 25.1018 289.692 23.1506L289.692 23.1504C287.449 21.2124 284.041 20.2975 279.576 20.2975ZM304.164 24.2975C307.194 21.6224 311.033 20.2975 315.638 20.2975C319.106 20.2975 322.406 20.9284 325.537 22.1898L325.876 22.3264V22.6863V28.4991V29.3078L325.117 28.9936C321.974 27.6918 319.131 27.0545 316.582 27.0545C313.351 27.0545 311.041 27.8496 309.544 29.3377C308.052 30.8227 307.247 33.2398 307.247 36.7166C307.247 40.3654 308.034 42.9159 309.495 44.4805L309.496 44.481C310.944 46.0349 313.323 46.8694 316.771 46.8694C319.532 46.8694 322.326 46.2136 325.155 44.8845L325.937 44.5168V45.3685V51.1759V51.5243L325.613 51.6661C322.519 53.0196 319.213 53.6901 315.701 53.6901C311.14 53.6901 307.306 52.3993 304.235 49.7895C301.108 47.1375 299.609 42.895 299.609 37.211C299.609 31.3661 301.084 27.0149 304.164 24.2975ZM331.368 37.0256C331.368 42.3821 332.638 46.4609 335.178 49.2619C337.716 52.0628 341.503 53.4624 346.538 53.4624C351.404 53.4624 355.16 52.0428 357.803 49.1983C360.445 46.3555 361.766 42.3003 361.766 37.0256C361.766 31.7508 360.487 27.7247 357.929 24.9456C355.367 22.161 351.55 20.7741 346.475 20.7741C336.403 20.7741 331.368 26.1907 331.368 37.0256ZM353.083 28.8986C354.468 30.6927 355.16 33.4009 355.16 37.0253C355.16 44.3176 352.265 47.9638 346.475 47.9638C343.495 47.9638 341.324 47.0259 339.961 45.1519C338.597 43.2761 337.916 40.5679 337.916 37.0253C337.916 33.4827 338.577 30.7944 339.898 28.9604C341.22 27.1283 343.41 26.2086 346.475 26.2086C349.494 26.2086 351.699 27.1065 353.083 28.8986Z" fill="#00B2FD"/>
</svg>
